
        <svg xmlns="http://www.w3.org/2000/svg" xmlns:xlink="http://www.w3.org/1999/xlink" version="1.1" width="3192" 
        height="3192" viewBox="0 0 3192 3192">
			
			<g transform="scale(9.6) translate(10, 10)">
				<defs id="SvgjsDefs1610"></defs><g id="SvgjsG1611" featureKey="rootContainer" transform="matrix(1.5585413392436143,0,0,1.5585413392436143,0,0)" fill="#000000"><path xmlns="http://www.w3.org/2000/svg" d="M100.254 0C44.974 0 0 44.974 0 100.254s44.974 100.254 100.254 100.254c55.28 0 100.254-44.974 100.254-100.254S155.534 0 100.254 0zm0 195.508C47.731 195.508 5 152.777 5 100.254S47.731 5 100.254 5s95.254 42.73 95.254 95.254-42.731 95.254-95.254 95.254z"></path></g><g id="SvgjsG1612" featureKey="symbolFeature-0" transform="matrix(1.2342758545430483,0,0,1.2342758545430483,94.73271005476036,56.89624752383744)" fill="#000000"><g xmlns="http://www.w3.org/2000/svg"><path d="M83.8,38.3h-2.7c-0.2,0-0.5,0.1-0.7,0.2l0,0l-3.1,2l0,0l0,0l-4.8-10.8c-0.9-2.1-2.9-3.5-5.2-3.6l-13-0.8   c-1.5-0.1-2.9-0.1-4.4-0.1s-2.9,0-4.4,0.1l-13,0.8c-2.3,0.1-4.3,1.5-5.2,3.6l-4.8,10.8l0,0l0,0l-3.1-2c-0.2-0.1-0.4-0.2-0.7-0.2   h-2.7c-0.7,0-1.2,0.5-1.2,1.2V40c0,0.4,0.2,0.7,0.4,0.9l2.9,2.4c0.2,0.1,0.3,0.2,0.5,0.3c0.1,0,0.1,0,0.2,0c0.1,0,0.3,0,0.4,0l0,0   l2.1-0.6l0,0l0,0L21,44.3c0,0.1-0.1,0.2-0.2,0.2l-3.7,4.8c-0.2,0.2-0.4,0.5-0.5,0.8c-0.4,0.8-0.6,1.7-0.5,2.7l2.1,21.5   c0,0.3,0.3,0.6,0.6,0.6h5.9c0.3,0,0.6-0.3,0.6-0.6v-3.9c0-0.7,0.6-1.3,1.3-1.2l0,0c0,0,0,0,0,0l14.8,0.7c1.4,0.1,2.8,0.1,4.2,0.2   c2.8,0.1,5.7,0.1,8.5,0c1.4,0,2.8-0.1,4.2-0.2l14.8-0.7c0,0,0,0,0,0l0,0c0.7,0,1.3,0.5,1.3,1.2v3.9c0,0.3,0.3,0.6,0.6,0.6h5.9   c0.3,0,0.6-0.2,0.6-0.6l2.1-21.5c0.1-0.9-0.1-1.9-0.5-2.7c-0.1-0.3-0.3-0.5-0.5-0.8l-3.7-4.8c-0.1-0.1-0.1-0.2-0.2-0.2L78.4,43l0,0   l0,0l2.1,0.6l0,0c0.1,0,0.3,0,0.4,0c0.1,0,0.1,0,0.2,0c0.2,0,0.4-0.1,0.5-0.3l2.9-2.4c0.3-0.2,0.4-0.6,0.4-0.9v-0.5   C85,38.8,84.5,38.3,83.8,38.3z M29.8,58.8c-2.4,0-4.4-2-4.4-4.4c0-2.4,2-4.4,4.4-4.4c2.4,0,4.4,2,4.4,4.4   C34.2,56.8,32.2,58.8,29.8,58.8z M50,42H27.1c-0.9,0-1.5-1-1.1-1.8l5.2-10.3c0.2-0.4,0.6-0.6,1-0.7L45,28.5c3.3-0.2,6.6-0.2,10,0   l12.7,0.7c0.4,0,0.8,0.3,1,0.7L74,40.2c0.4,0.8-0.2,1.8-1.1,1.8H50z M70.2,58.8c-2.4,0-4.4-2-4.4-4.4c0-2.4,2-4.4,4.4-4.4   c2.4,0,4.4,2,4.4,4.4C74.6,56.8,72.6,58.8,70.2,58.8z"></path></g></g><g id="SvgjsG1613" featureKey="nameFeature-0" transform="matrix(1.439514199102193,0,0,1.439514199102193,53.13219995971574,160.56529569500995)" fill="#000000"><path d="M1.9922 20 l0 -13.926 l4.7656 0 c4.3555 0 6.543 2.832 6.543 6.9531 c0 4.1309 -2.1875 6.9727 -6.543 6.9727 l-4.7656 0 z M4.3262 17.9102 l2.334 0 c2.8516 0 4.1895 -1.8457 4.1895 -4.8828 c0 -3.0176 -1.3379 -4.873 -4.1895 -4.873 l-2.334 0 l0 9.7559 z M23.828165625 20 l-3.6133 -6.2109 l-1.5039 0 l0 6.2109 l-2.334 0 l0 -13.926 l4.834 0 c3.0176 0 4.3457 1.8066 4.3457 4.043 c0 1.9434 -1.1523 3.252 -2.998 3.584 l4.0137 6.2988 l-2.7441 0 z M18.710965625 8.047 l0 4.0137 l2.1582 0 c1.709 0 2.4414 -0.80078 2.4414 -1.9922 c0 -1.1816 -0.73242 -2.0215 -2.4414 -2.0215 l-2.1582 0 z M29.1406375 20 l0 -13.926 l2.334 0 l0 13.926 l-2.334 0 z M44.179796875 6.074 l2.4805 0 l-5.1367 13.926 l-2.5098 0 l-5.1074 -13.926 l2.4707 0 l3.9063 11.123 z M56.865209375 8.154 l-5.4102 0 l0 3.8574 l4.7852 0 l0 2.0605 l-4.7852 0 l0 3.8379 l5.4102 0 l0 2.0898 l-7.7734 0 l0 -13.926 l7.7734 0 l0 2.0801 z M67.412153125 17.9687 l6.4258 0 l0 2.0313 l-9.6094 0 l0 -1.6992 l5.5664 -5.7129 c1.084 -1.1133 1.3965 -1.9531 1.3965 -2.7344 c0 -1.3672 -0.87891 -2.1289 -2.207 -2.1289 c-1.3184 0 -2.2949 0.69336 -2.2949 2.5977 l0 1.0254 l-2.2363 -0.21484 l0 -0.78125 c0 -2.9492 1.8164 -4.4922 4.5215 -4.4922 c2.5391 0 4.4336 1.4551 4.4336 3.9844 c0 1.4648 -0.63477 2.5684 -1.9043 3.8867 z M84.375028125 17.9102 l4.5996 0 l0 2.0898 l-6.9336 0 l0 -13.926 l2.334 0 l0 11.836 z M99.228490625 8.154 l-5.4102 0 l0 3.8574 l4.7852 0 l0 2.0605 l-4.7852 0 l0 3.8379 l5.4102 0 l0 2.0898 l-7.7734 0 l0 -13.926 l7.7734 0 l0 2.0801 z M111.552921875 20 l-1.1035 -3.0957 l-6.084 0 l-1.0938 3.0957 l-2.4121 0 l5.127 -13.926 l2.8418 0 l5.127 13.926 l-2.4023 0 z M105.078121875 14.9023 l4.668 0 l-2.334 -6.582 z M123.847696875 20 l-3.6133 -6.2109 l-1.5039 0 l0 6.2109 l-2.334 0 l0 -13.926 l4.834 0 c3.0176 0 4.3457 1.8066 4.3457 4.043 c0 1.9434 -1.1523 3.252 -2.998 3.584 l4.0137 6.2988 l-2.7441 0 z M118.730496875 8.047 l0 4.0137 l2.1582 0 c1.709 0 2.4414 -0.80078 2.4414 -1.9922 c0 -1.1816 -0.73242 -2.0215 -2.4414 -2.0215 l-2.1582 0 z M138.59396875 6.074 l2.334 0 l0 13.926 l-2.6172 0 l-6.8359 -10.625 l0 10.625 l-2.3145 0 l0 -13.926 l2.5879 0 l6.8457 10.557 l0 -10.557 z"></path></g><g id="SvgjsG1614" featureKey="sloganFeature-0" transform="matrix(0.8440780684526836,0,0,0.8440780684526836,60.56506684089387,204.23939940413567)" fill="#de0608"><path d="M5.6 6 c4.83 0 7.33 3.07 7.33 7 s-2.5 7 -7.33 7 l-3.6 0 c-0.18 0 -0.3 -0.12 -0.3 -0.3 l0 -13.4 c0 -0.18 0.12 -0.3 0.3 -0.3 l3.6 0 z M5.6 17.990000000000002 c3.38 0 5.06 -1.87 5.06 -4.99 s-1.68 -4.99 -5.06 -4.99 l-1.66 0 l0 9.98 l1.66 0 z M25.735000000000003 9.98 c2.16 0 3.75 1.32 3.75 3.81 c0 0.19 -0.1 0.3 -0.29 0.32 l-1.56 0.22 c-0.19 0.03 -0.3 -0.08 -0.32 -0.27 c-0.09 -1.46 -0.99 -2.07 -2.27 -2.07 c-2.02 0 -2.96 1.69 -2.96 2.29 l0 5.42 c0 0.18 -0.12 0.3 -0.3 0.3 l-1.56 0 c-0.18 0 -0.3 -0.12 -0.3 -0.3 l0 -9.2 c0 -0.18 0.12 -0.3 0.3 -0.3 l1.48 0 c0.18 0 0.28 0.12 0.3 0.3 l0.08 1.32 l0.22 0 c0.64 -0.94 1.83 -1.84 3.43 -1.84 z M41.18000000000001 8.13 c-0.7 0 -1.25 -0.55 -1.25 -1.24 c0 -0.7 0.55 -1.25 1.25 -1.25 c0.69 0 1.24 0.55 1.24 1.25 c0 0.69 -0.55 1.24 -1.24 1.24 z M45.24000000000001 18.19 c0.18 0 0.3 0.12 0.3 0.3 l0 1.21 c0 0.18 -0.12 0.3 -0.3 0.3 l-8.61 0 c-0.18 0 -0.3 -0.12 -0.3 -0.3 l0 -1.21 c0 -0.18 0.12 -0.3 0.3 -0.3 l3.49 0 l0 -6.18 l-2.99 0 c-0.18 0 -0.3 -0.12 -0.3 -0.3 l0 -1.21 c0 -0.18 0.12 -0.3 0.3 -0.3 l4.85 0 c0.18 0 0.3 0.12 0.3 0.3 l0 7.69 l2.96 0 z M59.955000000000005 10.44 c0.07 -0.16 0.2 -0.24 0.36 -0.24 l1.57 0 c0.22 0 0.33 0.12 0.24 0.34 l-3.87 9.22 c-0.06 0.16 -0.2 0.24 -0.36 0.24 l-1.64 0 c-0.16 0 -0.3 -0.08 -0.36 -0.24 l-3.87 -9.22 c-0.09 -0.22 0.02 -0.34 0.24 -0.34 l1.56 0 c0.16 0 0.3 0.08 0.36 0.24 l2.89 7.13 z M73.56 8.13 c-0.7 0 -1.25 -0.55 -1.25 -1.24 c0 -0.7 0.55 -1.25 1.25 -1.25 c0.69 0 1.24 0.55 1.24 1.25 c0 0.69 -0.55 1.24 -1.24 1.24 z M77.62 18.19 c0.18 0 0.3 0.12 0.3 0.3 l0 1.21 c0 0.18 -0.12 0.3 -0.3 0.3 l-8.61 0 c-0.18 0 -0.3 -0.12 -0.3 -0.3 l0 -1.21 c0 -0.18 0.12 -0.3 0.3 -0.3 l3.49 0 l0 -6.18 l-2.99 0 c-0.18 0 -0.3 -0.12 -0.3 -0.3 l0 -1.21 c0 -0.18 0.12 -0.3 0.3 -0.3 l4.85 0 c0.18 0 0.3 0.12 0.3 0.3 l0 7.69 l2.96 0 z M90.78500000000001 9.98 c2.09 0 3.54 1.42 3.54 4.04 l0 5.68 c0 0.18 -0.12 0.3 -0.3 0.3 l-1.56 0 c-0.18 0 -0.3 -0.12 -0.3 -0.3 l0 -5.36 c0 -1.67 -0.86 -2.37 -2.17 -2.37 c-1.9 0 -2.72 1.64 -2.72 2.08 l0 5.65 c0 0.18 -0.12 0.3 -0.3 0.3 l-1.56 0 c-0.18 0 -0.3 -0.12 -0.3 -0.3 l0 -9.2 c0 -0.18 0.12 -0.3 0.3 -0.3 l1.48 0 c0.18 0 0.28 0.12 0.3 0.3 l0.08 1.32 l0.21 0 c0.58 -0.94 1.65 -1.84 3.3 -1.84 z M111.34000000000002 10.2 c0.18 0 0.3 0.12 0.3 0.3 l0 9.35 c0 3.09 -2.72 4.11 -5.07 4.11 c-1.6 0 -3.04 -0.45 -4.01 -1.1 c-0.15 -0.1 -0.17 -0.25 -0.09 -0.41 l0.5 -0.93 c0.09 -0.16 0.23 -0.21 0.4 -0.12 c0.86 0.46 1.78 0.73 3.04 0.73 c1.48 0 3.2 -0.57 3.2 -2.37 l0 -1.29 c-0.74 0.93 -1.81 1.58 -3.22 1.58 c-2.77 0 -4.77 -2.27 -4.77 -5.03 s2 -5.03 4.77 -5.03 c1.35 0 2.43 0.63 3.18 1.55 l0.06 -1.04 c0.02 -0.18 0.12 -0.3 0.3 -0.3 l1.41 0 z M106.62000000000002 18.07 c1.67 0 2.89 -1.45 2.89 -3.07 c0 -1.6 -1.22 -3.03 -2.89 -3.03 s-2.91 1.34 -2.91 3.03 c0 1.71 1.24 3.07 2.91 3.07 z M136.05 11.88 c2.7 0.54 5.27 1.38 5.27 4.37 c0 2.56 -1.67 4.05 -5.2 4.05 c-3.11 0 -4.87 -1.12 -5.09 -3.55 c-0.02 -0.2 0.1 -0.36 0.28 -0.36 l1.54 0 c0.18 0 0.27 0.14 0.3 0.3 c0.2 0.99 1.22 1.58 2.97 1.58 c1.91 0 3 -0.62 3 -1.97 c0 -1.54 -0.98 -1.96 -3.07 -2.42 c-2.52 -0.56 -4.73 -1.48 -4.73 -4.21 c0 -2.35 1.54 -3.84 4.69 -3.84 c2.88 0 4.64 1.09 4.88 3.47 c0.02 0.2 -0.1 0.32 -0.28 0.32 l-1.43 0 c-0.18 0 -0.27 -0.1 -0.3 -0.26 c-0.16 -0.9 -1.14 -1.53 -2.85 -1.53 c-1.58 0 -2.54 0.65 -2.54 1.84 c0 1.15 0.65 1.82 2.56 2.21 z M153.315 18.25 c1.06 0 1.92 -0.44 2.5 -1.18 c0.12 -0.15 0.24 -0.18 0.4 -0.08 l1.15 0.67 c0.16 0.1 0.22 0.24 0.1 0.4 c-0.86 1.32 -2.38 2.2 -4.19 2.2 c-2.98 0 -5.16 -2.23 -5.16 -5.14 s2.18 -5.14 5.16 -5.14 c1.81 0 3.33 0.88 4.19 2.2 c0.12 0.16 0.06 0.3 -0.1 0.4 l-1.15 0.67 c-0.16 0.1 -0.28 0.07 -0.4 -0.08 c-0.58 -0.74 -1.44 -1.19 -2.5 -1.19 c-1.78 0 -3.1 1.28 -3.1 3.14 s1.32 3.13 3.1 3.13 z M170.35999999999999 9.98 c2.09 0 3.54 1.42 3.54 4.04 l0 5.68 c0 0.18 -0.12 0.3 -0.3 0.3 l-1.56 0 c-0.18 0 -0.3 -0.12 -0.3 -0.3 l0 -5.36 c0 -1.67 -0.86 -2.37 -2.17 -2.37 c-1.67 0 -2.5 1.26 -2.68 1.87 l0 5.86 c0 0.18 -0.12 0.3 -0.3 0.3 l-1.56 0 c-0.18 0 -0.3 -0.12 -0.3 -0.3 l0 -13.4 c0 -0.18 0.12 -0.3 0.3 -0.3 l1.56 0 c0.18 0 0.3 0.12 0.3 0.3 l0 5.52 l0.16 0 c0.59 -0.94 1.66 -1.84 3.31 -1.84 z M186.345 20.26 c-2.85 0 -5.15 -2.26 -5.15 -5.14 c0 -2.87 2.3 -5.14 5.15 -5.14 c2.84 0 5.14 2.27 5.14 5.14 c0 2.88 -2.3 5.14 -5.14 5.14 z M186.345 18.25 c1.72 0 3.05 -1.4 3.05 -3.13 c0 -1.72 -1.33 -3.14 -3.05 -3.14 c-1.73 0 -3.06 1.42 -3.06 3.14 c0 1.73 1.33 3.13 3.06 3.13 z M203.58 20.26 c-2.85 0 -5.15 -2.26 -5.15 -5.14 c0 -2.87 2.3 -5.14 5.15 -5.14 c2.84 0 5.14 2.27 5.14 5.14 c0 2.88 -2.3 5.14 -5.14 5.14 z M203.58 18.25 c1.72 0 3.05 -1.4 3.05 -3.13 c0 -1.72 -1.33 -3.14 -3.05 -3.14 c-1.73 0 -3.06 1.42 -3.06 3.14 c0 1.73 1.33 3.13 3.06 3.13 z M224.675 18.19 c0.18 0 0.3 0.12 0.3 0.3 l0 1.21 c0 0.18 -0.12 0.3 -0.3 0.3 l-8.71 0 c-0.18 0 -0.3 -0.12 -0.3 -0.3 l0 -1.21 c0 -0.18 0.12 -0.3 0.3 -0.3 l3.49 0 l0 -10.38 l-3.26 0 c-0.18 0 -0.3 -0.12 -0.3 -0.3 l0 -1.21 c0 -0.18 0.12 -0.3 0.3 -0.3 l5.12 0 c0.18 0 0.3 0.12 0.3 0.3 l0 11.89 l3.06 0 z"></path></g>
			</g>
		</svg>
	