<?xml version="1.0" encoding="utf-8"?>
<!-- Generator: Adobe Illustrator 28.4.1, SVG Export Plug-In . SVG Version: 6.00 Build 0)  -->
<svg version="1.1" id="Layer_1" xmlns="http://www.w3.org/2000/svg" xmlns:xlink="http://www.w3.org/1999/xlink" x="0px" y="0px"
	 viewBox="0 0 3161.7 741.4" style="enable-background:new 0 0 3161.7 741.4;" xml:space="preserve">
<style type="text/css">
	.st0{fill:none;}
	.st1{fill:#E80404;}
</style>
<rect class="st0" width="3161.7" height="741.4"/>
<g transform="scale(8.08463918554746) translate(10, 10)">
	<g id="SvgjsG4504" transform="matrix(1.3866555896718193,0,0,1.3866555896718193,-20.52251092613342,-32.94372191766411)">
		<g>
			<path d="M83.8,38.3h-2.7c-0.2,0-0.5,0.1-0.7,0.2l0,0l-3.1,2l0,0l0,0l-4.8-10.8c-0.9-2.1-2.9-3.5-5.2-3.6l-13-0.8
				c-1.5-0.1-2.9-0.1-4.4-0.1c-1.5,0-2.9,0-4.4,0.1l-13,0.8c-2.3,0.1-4.3,1.5-5.2,3.6l-4.8,10.8l0,0l0,0l-3.1-2
				c-0.2-0.1-0.4-0.2-0.7-0.2H16c-0.7,0-1.2,0.5-1.2,1.2V40c0,0.4,0.2,0.7,0.4,0.9l2.9,2.4c0.2,0.1,0.3,0.2,0.5,0.3
				c0.1,0,0.1,0,0.2,0s0.3,0,0.4,0l0,0l2.1-0.6l0,0l0,0L21,44.3c0,0.1-0.1,0.2-0.2,0.2l-3.7,4.8c-0.2,0.2-0.4,0.5-0.5,0.8
				c-0.4,0.8-0.6,1.7-0.5,2.7l2.1,21.5c0,0.3,0.3,0.6,0.6,0.6h5.9c0.3,0,0.6-0.3,0.6-0.6v-3.9c0-0.7,0.6-1.3,1.3-1.2l0,0l0,0
				l14.8,0.7c1.4,0.1,2.8,0.1,4.2,0.2c2.8,0.1,5.7,0.1,8.5,0c1.4,0,2.8-0.1,4.2-0.2l14.8-0.7l0,0l0,0c0.7,0,1.3,0.5,1.3,1.2v3.9
				c0,0.3,0.3,0.6,0.6,0.6h5.9c0.3,0,0.6-0.2,0.6-0.6l2.1-21.5c0.1-0.9-0.1-1.9-0.5-2.7c-0.1-0.3-0.3-0.5-0.5-0.8l-3.7-4.8
				c-0.1-0.1-0.1-0.2-0.2-0.2L78.4,43l0,0l0,0l2.1,0.6l0,0c0.1,0,0.3,0,0.4,0s0.1,0,0.2,0c0.2,0,0.4-0.1,0.5-0.3l2.9-2.4
				c0.3-0.2,0.4-0.6,0.4-0.9v-0.5C85,38.8,84.5,38.3,83.8,38.3z M29.8,58.8c-2.4,0-4.4-2-4.4-4.4s2-4.4,4.4-4.4s4.4,2,4.4,4.4
				S32.2,58.8,29.8,58.8z M50,42H27.1c-0.9,0-1.5-1-1.1-1.8l5.2-10.3c0.2-0.4,0.6-0.6,1-0.7L45,28.5c3.3-0.2,6.6-0.2,10,0l12.7,0.7
				c0.4,0,0.8,0.3,1,0.7L74,40.2c0.4,0.8-0.2,1.8-1.1,1.8H50z M70.2,58.8c-2.4,0-4.4-2-4.4-4.4s2-4.4,4.4-4.4s4.4,2,4.4,4.4
				S72.6,58.8,70.2,58.8z"/>
		</g>
	</g>
	<g id="SvgjsG4505" transform="matrix(1.819386001643049,0,0,1.819386001643049,113.37541939352963,-10.660529052140191)">
		<path d="M2,20V6.1h4.8c4.4,0,6.5,2.8,6.5,7c0,4.1-2.2,7-6.5,7L2,20L2,20z M4.3,17.9h2.3c2.9,0,4.2-1.8,4.2-4.9
			c0-3-1.3-4.9-4.2-4.9H4.3V17.9L4.3,17.9z M23.8,20l-3.6-6.2h-1.5V20h-2.3V6.1h4.8c3,0,4.3,1.8,4.3,4c0,1.9-1.2,3.3-3,3.6l4,6.3
			L23.8,20L23.8,20z M18.7,8v4h2.2c1.7,0,2.4-0.8,2.4-2c0-1.2-0.7-2-2.4-2L18.7,8L18.7,8z M29.1,20V6.1h2.3V20H29.1z M44.2,6.1h2.5
			L41.5,20H39L33.9,6.1h2.5l3.9,11.1L44.2,6.1z M56.9,8.2h-5.4V12h4.8v2.1h-4.8v3.8h5.4V20h-7.8V6.1h7.8L56.9,8.2L56.9,8.2z
			 M67.4,18h6.4v2h-9.6v-1.7l5.6-5.7c1.1-1.1,1.4-2,1.4-2.7c0-1.4-0.9-2.1-2.2-2.1c-1.3,0-2.3,0.7-2.3,2.6v1l-2.2-0.2v-0.8
			c0-2.9,1.8-4.5,4.5-4.5c2.5,0,4.4,1.5,4.4,4c0,1.5-0.6,2.6-1.9,3.9L67.4,18z M84.4,17.9H89V20H82V6.1h2.3V17.9L84.4,17.9z
			 M99.2,8.2h-5.4V12h4.8v2.1h-4.8v3.8h5.4V20h-7.8V6.1h7.8V8.2L99.2,8.2z M111.6,20l-1.1-3.1h-6.1l-1.1,3.1h-2.4L106,6.1h2.8
			L114,20H111.6L111.6,20z M105.1,14.9h4.7l-2.3-6.6L105.1,14.9z M123.8,20l-3.6-6.2h-1.5V20h-2.3V6.1h4.8c3,0,4.3,1.8,4.3,4
			c0,1.9-1.2,3.3-3,3.6l4,6.3L123.8,20L123.8,20z M118.7,8v4h2.2c1.7,0,2.4-0.8,2.4-2c0-1.2-0.7-2-2.4-2L118.7,8L118.7,8z
			 M138.6,6.1h2.3V20h-2.6l-6.8-10.6V20h-2.3V6.1h2.6l6.8,10.6C138.6,16.6,138.6,6.1,138.6,6.1z"/>
	</g>
	<g id="SvgjsG4506" transform="matrix(1.3083169726400983,0,0,1.3083169726400983,114.39357106086072,39.45867715554136)">
		<path class="st1" d="M2,20V6.1h4.8c4.4,0,6.5,2.8,6.5,7c0,4.1-2.2,7-6.5,7L2,20L2,20z M4.3,17.9h2.3c2.9,0,4.2-1.8,4.2-4.9
			c0-3-1.3-4.9-4.2-4.9H4.3V17.9L4.3,17.9z M22.8,11.8c0.5-1,1.7-1.7,3.2-1.8v2.1c-2,0-3.1,0.7-3.1,2.9v5h-2.3v-9.8h2.2V11.8
			L22.8,11.8z M33.7,8.3c-0.8,0-1.4-0.6-1.4-1.4c0-0.8,0.6-1.4,1.4-1.4c0.7,0,1.4,0.6,1.4,1.4C35,7.7,34.4,8.3,33.7,8.3z M32.5,20
			v-9.8h2.3V20H32.5z M48.9,10.2h2.4L47.2,20h-1.9l-4.1-9.8h2.4l2.6,7.2L48.9,10.2z M58.9,8.3c-0.8,0-1.4-0.6-1.4-1.4
			c0-0.8,0.6-1.4,1.4-1.4c0.7,0,1.4,0.6,1.4,1.4C60.3,7.7,59.6,8.3,58.9,8.3z M57.7,20v-9.8H60V20H57.7z M73.1,10
			c2.2,0,3.5,1.2,3.5,3.4V20h-2.3v-6.1c0-1.5-0.9-2.1-1.9-2.1c-1.2,0-2.3,0.7-2.3,2.5V20h-2.2v-9.8h2.2v1.2
			C70.8,10.5,71.8,10,73.1,10L73.1,10z M91.2,10.2h2.2v9.2c0,3.6-2,5.3-5,5.3c-2.6,0-4.2-1.2-4.9-3l1.9-0.8c0.6,1.4,1.5,2.1,3,2.1
			c1.9,0,2.8-1.2,2.8-3.3v-1.5c-0.6,0.9-1.8,1.6-3.2,1.6c-2.4,0-4.5-2-4.5-4.9S85.5,10,88,10c1.4,0,2.7,0.7,3.2,1.7L91.2,10.2z
			 M88.5,17.8c1.6,0,2.9-1.4,2.9-3s-1.2-3-2.9-3c-1.6,0-2.9,1.3-2.9,3C85.6,16.5,86.9,17.8,88.5,17.8z M116.1,20.2
			c-2.9,0-5.2-1.4-5.6-3.9l2.4-0.6c0.3,1.6,1.6,2.5,3.3,2.5c1.4,0,2.6-0.6,2.6-2c0-1.5-1.7-2-3.5-2.5c-2.1-0.6-4.3-1.3-4.3-3.9
			c0-2.6,2.1-4,4.8-4c2.4,0,4.8,1,5.3,3.5l-2.3,0.6c-0.3-1.5-1.5-2.1-2.9-2.1c-1.3,0-2.5,0.6-2.5,2c0,1.3,1.5,1.7,3.2,2.2
			c2.2,0.6,4.7,1.3,4.7,4.1C121.1,19,118.7,20.2,116.1,20.2L116.1,20.2z M132.7,20.2c-2.9,0-5.1-2-5.1-5.1c0-3.1,2.1-5.1,5.1-5.1
			c2.3,0,4.1,1.2,4.7,3.4l-2.1,0.3c-0.4-1.2-1.3-1.9-2.6-1.9c-1.6,0-2.8,1.3-2.8,3.3s1.2,3.3,2.8,3.3c1.2,0,2.2-0.6,2.6-1.9l2.1,0.3
			C136.8,18.9,135,20.2,132.7,20.2L132.7,20.2z M149.6,10c2.1,0,3.4,1.2,3.4,3.6V20h-2.3v-6c0-1.6-0.9-2.2-2-2.2
			c-1.2,0-2.3,0.7-2.3,2.5V20h-2.2V5h2.2v6.4C147.2,10.5,148.3,10,149.6,10L149.6,10z M165.1,20.2c-3,0-5.2-1.9-5.2-5.1
			c0-3.2,2.2-5.1,5.2-5.1c3,0,5.2,1.9,5.2,5.1C170.3,18.3,168.1,20.2,165.1,20.2z M165.1,18.4c1.7,0,3-1.3,3-3.3c0-2-1.2-3.3-3-3.3
			c-1.7,0-2.9,1.3-2.9,3.3C162.1,17.1,163.4,18.4,165.1,18.4z M181.7,20.2c-3,0-5.2-1.9-5.2-5.1c0-3.2,2.2-5.1,5.2-5.1
			c3,0,5.2,1.9,5.2,5.1C186.9,18.3,184.7,20.2,181.7,20.2z M181.7,18.4c1.7,0,3-1.3,3-3.3c0-2-1.2-3.3-3-3.3c-1.7,0-2.9,1.3-2.9,3.3
			C178.7,17.1,180,18.4,181.7,18.4z M193.9,20V5h2.3v15H193.9z"/>
	</g>
</g>
</svg>
