
        <svg xmlns="http://www.w3.org/2000/svg" xmlns:xlink="http://www.w3.org/1999/xlink" version="1.1" width="3161.6927837109492" 
        height="741.4158118976338" viewBox="0 0 3161.6927837109492 741.4158118976338">
			<rect fill="#ffffff" width="3161.6927837109492" height="741.4158118976338"/>
			<g transform="scale(8.08463918554746) translate(10, 10)">
				<defs id="SvgjsDefs4503"></defs><g id="SvgjsG4504" featureKey="symbolFeature-0" transform="matrix(1.3866555896718193,0,0,1.3866555896718193,-20.52251092613342,-32.94372191766411)" fill="#000000"><g xmlns="http://www.w3.org/2000/svg"><path d="M83.8,38.3h-2.7c-0.2,0-0.5,0.1-0.7,0.2l0,0l-3.1,2l0,0l0,0l-4.8-10.8c-0.9-2.1-2.9-3.5-5.2-3.6l-13-0.8   c-1.5-0.1-2.9-0.1-4.4-0.1s-2.9,0-4.4,0.1l-13,0.8c-2.3,0.1-4.3,1.5-5.2,3.6l-4.8,10.8l0,0l0,0l-3.1-2c-0.2-0.1-0.4-0.2-0.7-0.2   h-2.7c-0.7,0-1.2,0.5-1.2,1.2V40c0,0.4,0.2,0.7,0.4,0.9l2.9,2.4c0.2,0.1,0.3,0.2,0.5,0.3c0.1,0,0.1,0,0.2,0c0.1,0,0.3,0,0.4,0l0,0   l2.1-0.6l0,0l0,0L21,44.3c0,0.1-0.1,0.2-0.2,0.2l-3.7,4.8c-0.2,0.2-0.4,0.5-0.5,0.8c-0.4,0.8-0.6,1.7-0.5,2.7l2.1,21.5   c0,0.3,0.3,0.6,0.6,0.6h5.9c0.3,0,0.6-0.3,0.6-0.6v-3.9c0-0.7,0.6-1.3,1.3-1.2l0,0c0,0,0,0,0,0l14.8,0.7c1.4,0.1,2.8,0.1,4.2,0.2   c2.8,0.1,5.7,0.1,8.5,0c1.4,0,2.8-0.1,4.2-0.2l14.8-0.7c0,0,0,0,0,0l0,0c0.7,0,1.3,0.5,1.3,1.2v3.9c0,0.3,0.3,0.6,0.6,0.6h5.9   c0.3,0,0.6-0.2,0.6-0.6l2.1-21.5c0.1-0.9-0.1-1.9-0.5-2.7c-0.1-0.3-0.3-0.5-0.5-0.8l-3.7-4.8c-0.1-0.1-0.1-0.2-0.2-0.2L78.4,43l0,0   l0,0l2.1,0.6l0,0c0.1,0,0.3,0,0.4,0c0.1,0,0.1,0,0.2,0c0.2,0,0.4-0.1,0.5-0.3l2.9-2.4c0.3-0.2,0.4-0.6,0.4-0.9v-0.5   C85,38.8,84.5,38.3,83.8,38.3z M29.8,58.8c-2.4,0-4.4-2-4.4-4.4c0-2.4,2-4.4,4.4-4.4c2.4,0,4.4,2,4.4,4.4   C34.2,56.8,32.2,58.8,29.8,58.8z M50,42H27.1c-0.9,0-1.5-1-1.1-1.8l5.2-10.3c0.2-0.4,0.6-0.6,1-0.7L45,28.5c3.3-0.2,6.6-0.2,10,0   l12.7,0.7c0.4,0,0.8,0.3,1,0.7L74,40.2c0.4,0.8-0.2,1.8-1.1,1.8H50z M70.2,58.8c-2.4,0-4.4-2-4.4-4.4c0-2.4,2-4.4,4.4-4.4   c2.4,0,4.4,2,4.4,4.4C74.6,56.8,72.6,58.8,70.2,58.8z"></path></g></g><g id="SvgjsG4505" featureKey="nameFeature-0" transform="matrix(1.819386001643049,0,0,1.819386001643049,113.37541939352963,-10.660529052140191)" fill="#000000"><path d="M1.9922 20 l0 -13.926 l4.7656 0 c4.3555 0 6.543 2.832 6.543 6.9531 c0 4.1309 -2.1875 6.9727 -6.543 6.9727 l-4.7656 0 z M4.3262 17.9102 l2.334 0 c2.8516 0 4.1895 -1.8457 4.1895 -4.8828 c0 -3.0176 -1.3379 -4.873 -4.1895 -4.873 l-2.334 0 l0 9.7559 z M23.828165625 20 l-3.6133 -6.2109 l-1.5039 0 l0 6.2109 l-2.334 0 l0 -13.926 l4.834 0 c3.0176 0 4.3457 1.8066 4.3457 4.043 c0 1.9434 -1.1523 3.252 -2.998 3.584 l4.0137 6.2988 l-2.7441 0 z M18.710965625 8.047 l0 4.0137 l2.1582 0 c1.709 0 2.4414 -0.80078 2.4414 -1.9922 c0 -1.1816 -0.73242 -2.0215 -2.4414 -2.0215 l-2.1582 0 z M29.1406375 20 l0 -13.926 l2.334 0 l0 13.926 l-2.334 0 z M44.179796875 6.074 l2.4805 0 l-5.1367 13.926 l-2.5098 0 l-5.1074 -13.926 l2.4707 0 l3.9063 11.123 z M56.865209375 8.154 l-5.4102 0 l0 3.8574 l4.7852 0 l0 2.0605 l-4.7852 0 l0 3.8379 l5.4102 0 l0 2.0898 l-7.7734 0 l0 -13.926 l7.7734 0 l0 2.0801 z M67.412153125 17.9687 l6.4258 0 l0 2.0313 l-9.6094 0 l0 -1.6992 l5.5664 -5.7129 c1.084 -1.1133 1.3965 -1.9531 1.3965 -2.7344 c0 -1.3672 -0.87891 -2.1289 -2.207 -2.1289 c-1.3184 0 -2.2949 0.69336 -2.2949 2.5977 l0 1.0254 l-2.2363 -0.21484 l0 -0.78125 c0 -2.9492 1.8164 -4.4922 4.5215 -4.4922 c2.5391 0 4.4336 1.4551 4.4336 3.9844 c0 1.4648 -0.63477 2.5684 -1.9043 3.8867 z M84.375028125 17.9102 l4.5996 0 l0 2.0898 l-6.9336 0 l0 -13.926 l2.334 0 l0 11.836 z M99.228490625 8.154 l-5.4102 0 l0 3.8574 l4.7852 0 l0 2.0605 l-4.7852 0 l0 3.8379 l5.4102 0 l0 2.0898 l-7.7734 0 l0 -13.926 l7.7734 0 l0 2.0801 z M111.552921875 20 l-1.1035 -3.0957 l-6.084 0 l-1.0938 3.0957 l-2.4121 0 l5.127 -13.926 l2.8418 0 l5.127 13.926 l-2.4023 0 z M105.078121875 14.9023 l4.668 0 l-2.334 -6.582 z M123.847696875 20 l-3.6133 -6.2109 l-1.5039 0 l0 6.2109 l-2.334 0 l0 -13.926 l4.834 0 c3.0176 0 4.3457 1.8066 4.3457 4.043 c0 1.9434 -1.1523 3.252 -2.998 3.584 l4.0137 6.2988 l-2.7441 0 z M118.730496875 8.047 l0 4.0137 l2.1582 0 c1.709 0 2.4414 -0.80078 2.4414 -1.9922 c0 -1.1816 -0.73242 -2.0215 -2.4414 -2.0215 l-2.1582 0 z M138.59396875 6.074 l2.334 0 l0 13.926 l-2.6172 0 l-6.8359 -10.625 l0 10.625 l-2.3145 0 l0 -13.926 l2.5879 0 l6.8457 10.557 l0 -10.557 z"></path></g><g id="SvgjsG4506" featureKey="sloganFeature-0" transform="matrix(1.3083169726400983,0,0,1.3083169726400983,114.39357106086072,39.45867715554136)" fill="#e80404"><path d="M1.9922 20 l0 -13.926 l4.7656 0 c4.3555 0 6.543 2.832 6.543 6.9531 c0 4.1309 -2.1875 6.9727 -6.543 6.9727 l-4.7656 0 z M4.3262 17.9102 l2.334 0 c2.8516 0 4.1895 -1.8457 4.1895 -4.8828 c0 -3.0176 -1.3379 -4.873 -4.1895 -4.873 l-2.334 0 l0 9.7559 z M22.84183125 11.8262 c0.47852 -0.97656 1.7383 -1.748 3.1641 -1.7578 l0 2.0508 c-2.002 0 -3.0762 0.73242 -3.0762 2.8711 l0 5.0098 l-2.2559 0 l0 -9.8242 l2.168 0 l0 1.6504 z M33.671834375 8.301 c-0.76172 0 -1.3867 -0.625 -1.3867 -1.377 c0 -0.76172 0.625 -1.377 1.3867 -1.377 c0.74219 0 1.377 0.61523 1.377 1.377 c0 0.75195 -0.63477 1.377 -1.377 1.377 z M32.519534375 20 l0 -9.8242 l2.2559 0 l0 9.8242 l-2.2559 0 z M48.916053125 10.1758 l2.3926 0 l-4.0918 9.8242 l-1.9434 0 l-4.0625 -9.8242 l2.3828 0 l2.6465 7.2461 z M58.89644375 8.301 c-0.76172 0 -1.3867 -0.625 -1.3867 -1.377 c0 -0.76172 0.625 -1.377 1.3867 -1.377 c0.74219 0 1.377 0.61523 1.377 1.377 c0 0.75195 -0.63477 1.377 -1.377 1.377 z M57.74414375 20 l0 -9.8242 l2.2559 0 l0 9.8242 l-2.2559 0 z M73.1054625 9.99 c2.1973 0 3.5352 1.2109 3.5352 3.3984 l0 6.6113 l-2.2656 0 l0 -6.123 c0 -1.4844 -0.89844 -2.0508 -1.9336 -2.0508 c-1.2402 0 -2.3047 0.70313 -2.3145 2.5293 l0 5.6445 l-2.2461 0 l0 -9.8242 l2.2461 0 l0 1.1621 c0.6543 -0.84961 1.6992 -1.3477 2.9785 -1.3477 z M91.249975 10.1758 l2.168 0 l0 9.209 c0 3.584 -1.9531 5.2637 -5 5.2637 c-2.6465 0 -4.1797 -1.1523 -4.9219 -3.0273 l1.8652 -0.83984 c0.56641 1.377 1.4941 2.0703 2.9688 2.0703 c1.8945 0 2.8223 -1.2305 2.8223 -3.3203 l0 -1.4551 c-0.58594 0.94727 -1.8164 1.6113 -3.2031 1.6113 c-2.4414 0 -4.4824 -1.9629 -4.4824 -4.8633 s2.0508 -4.834 4.502 -4.834 c1.4453 0 2.6563 0.70313 3.2227 1.7285 z M88.496075 17.832 c1.6113 0 2.8613 -1.3574 2.8613 -3.0078 s-1.2402 -3.0176 -2.8613 -3.0176 c-1.6016 0 -2.8516 1.2793 -2.8516 3.0176 c0 1.7188 1.2695 3.0078 2.8516 3.0078 z M116.05464375 20.18555 c-2.9492 0 -5.1563 -1.4063 -5.6055 -3.8672 l2.4023 -0.55664 c0.25391 1.6016 1.5723 2.4805 3.291 2.4805 c1.3574 0 2.5879 -0.57617 2.5684 -2.041 c-0.019531 -1.5234 -1.709 -1.9629 -3.5352 -2.4805 c-2.1094 -0.61523 -4.2773 -1.3184 -4.2773 -3.877 c0 -2.5977 2.1289 -3.9648 4.7754 -3.9648 c2.4414 0 4.7559 1.0254 5.293 3.5254 l-2.2559 0.56641 c-0.3125 -1.4844 -1.4648 -2.1387 -2.9199 -2.1387 c-1.2988 0 -2.5293 0.55664 -2.5293 1.9727 c0 1.2891 1.4746 1.6895 3.1641 2.1582 c2.1777 0.60547 4.6973 1.3477 4.6973 4.1406 c0 2.8809 -2.4121 4.082 -5.0684 4.082 z M132.675771875 20.17578 c-2.9492 0 -5.0879 -2.0313 -5.0879 -5.0977 c0 -3.0566 2.1387 -5.0879 5.0879 -5.0879 c2.334 0 4.1211 1.2402 4.6582 3.4277 l-2.0898 0.27344 c-0.38086 -1.25 -1.3477 -1.8945 -2.5879 -1.8945 c-1.6406 0 -2.8223 1.2988 -2.8223 3.2813 s1.1816 3.2813 2.8223 3.2813 c1.2402 0 2.207 -0.63477 2.5879 -1.8848 l2.0898 0.26367 c-0.53711 2.1875 -2.3633 3.4375 -4.6582 3.4375 z M149.6191125 9.99 c2.0801 0 3.4277 1.2109 3.4277 3.6035 l0 6.4063 l-2.2656 0 l0 -6.0156 c0 -1.5918 -0.88867 -2.1582 -1.9531 -2.1582 c-1.1621 0 -2.2852 0.6543 -2.2949 2.5293 l0 5.6445 l-2.2461 0 l0 -15 l2.2461 0 l0 6.4063 c0.66406 -0.88867 1.7383 -1.416 3.0859 -1.416 z M165.078159375 20.18555 c-2.9688 0 -5.166 -1.9238 -5.166 -5.1074 c0 -3.1543 2.1777 -5.0879 5.166 -5.0879 c2.998 0 5.1758 1.9336 5.1758 5.0879 c0 3.1836 -2.1875 5.1074 -5.1758 5.1074 z M165.058559375 18.3691 c1.709 0 2.959 -1.2988 2.959 -3.291 c0 -1.9824 -1.25 -3.2813 -2.959 -3.2813 c-1.6797 0 -2.9102 1.2988 -2.9102 3.2813 c0 1.9922 1.2305 3.291 2.9102 3.291 z M181.679721875 20.18555 c-2.9688 0 -5.166 -1.9238 -5.166 -5.1074 c0 -3.1543 2.1777 -5.0879 5.166 -5.0879 c2.998 0 5.1758 1.9336 5.1758 5.0879 c0 3.1836 -2.1875 5.1074 -5.1758 5.1074 z M181.660121875 18.3691 c1.709 0 2.959 -1.2988 2.959 -3.291 c0 -1.9824 -1.25 -3.2813 -2.959 -3.2813 c-1.6797 0 -2.9102 1.2988 -2.9102 3.2813 c0 1.9922 1.2305 3.291 2.9102 3.291 z M193.925784375 20 l0 -15 l2.2656 0 l0 15 l-2.2656 0 z"></path></g>
			</g>
		</svg>
	